<?xml version="1.0" encoding="iso-8859-1"?>
<!-- Generator: Adobe Illustrator 16.0.0, SVG Export Plug-In . SVG Version: 6.00 Build 0)  -->
<!DOCTYPE svg PUBLIC "-//W3C//DTD SVG 1.1//EN" "http://www.w3.org/Graphics/SVG/1.1/DTD/svg11.dtd">
<svg version="1.1" xmlns="http://www.w3.org/2000/svg" xmlns:xlink="http://www.w3.org/1999/xlink" x="0px" y="0px" width="1700px"
	 height="1332px" viewBox="0 0 1700 1332" style="enable-background:new 0 0 1700 1332;" xml:space="preserve">
<g id="background">
	<path style="fill:#F05157;" d="M492.009,364.568c0,32.588-26.418,59.008-59.004,59.008H261.329
		c-32.588,0-59.006-26.42-59.006-59.008V192.895c0-32.586,26.418-59.006,59.006-59.006h171.676c32.586,0,59.004,26.42,59.004,59.006
		V364.568z"/>
	<g>
		<path style="fill:#F9A46D;" d="M399.589,227.76c16.1,14.732,24.152,35.225,24.152,61.467c0,26.246-7.848,47.02-23.549,62.314
			c-15.699,15.299-39.65,22.945-71.852,22.945h-57.727V205.66h59.658C360.378,205.66,383.487,213.027,399.589,227.76z
			 M371.935,328.113c9.258-8.695,13.887-21.336,13.887-37.92c0-16.582-4.629-29.344-13.887-38.281
			c-9.262-8.936-23.471-13.404-42.629-13.404h-21.012v102.646h23.91C349.431,341.154,362.673,336.807,371.935,328.113z"/>
	</g>
	<g>
		<path style="fill:#FFFFFF;" d="M412.96,218.4c16.1,14.732,24.152,35.225,24.152,61.467c0,26.248-7.85,47.018-23.549,62.314
			s-39.65,22.943-71.854,22.943h-57.725V196.299h59.656C373.749,196.299,396.858,203.666,412.96,218.4z M385.306,318.754
			c9.258-8.695,13.887-21.334,13.887-37.92c0-16.582-4.629-29.346-13.887-38.281c-9.262-8.938-23.471-13.404-42.629-13.404h-21.014
			v102.646h23.912C362.802,331.795,376.044,327.447,385.306,318.754z"/>
	</g>
	<g>
		<circle style="fill:#2C4A9E;" cx="1347.729" cy="279.055" r="149.947"/>
		<path style="fill:#26386A;" d="M1473.913,279.055c0,69.691-56.494,126.186-126.184,126.186
			c-69.688,0-126.184-56.494-126.184-126.186c0-69.688,56.496-126.182,126.184-126.182
			C1417.419,152.873,1473.913,209.367,1473.913,279.055z"/>
		<g>
			<path style="fill:#FFFFFF;" d="M1354.353,255.467c-0.797,2.473-1.834,5.74-3.109,9.801c-1.279,4.064-2.76,8.615-4.449,13.654
				c-1.686,5.039-3.527,10.465-5.514,16.271c-1.99,5.811-4.084,11.656-6.281,17.545c-2.201,5.885-4.486,11.693-6.865,17.426
				c-2.377,5.736-4.736,11.072-7.08,16.012c7.643-2.289,14.766-5.717,21.373-10.283c6.605-4.562,12.611-9.812,18.018-15.758
				c5.408-5.941,10.16-12.354,14.264-19.244c4.1-6.887,7.4-13.846,9.906-20.877c2.5-7.027,4.17-13.918,5.006-20.664
				s0.711-12.938-0.371-18.564c-0.914-4.764-2.357-9.051-4.326-12.865c-1.967-3.812-4.445-6.965-7.43-9.459
				c-2.988-2.496-6.52-4.211-10.59-5.15c-4.072-0.938-8.635-0.922-13.686,0.049c-4.693,0.902-9.314,2.262-13.867,4.07
				c-4.557,1.816-8.85,3.893-12.891,6.24c-4.039,2.348-7.684,4.902-10.932,7.66c-3.25,2.756-5.943,5.578-8.086,8.457
				c-2.275,3.732-4.209,7.396-5.799,10.996c-1.592,3.598-3.209,6.865-4.852,9.799c-1.643,2.938-3.541,5.436-5.688,7.494
				c-2.148,2.061-4.885,3.41-8.203,4.047c-6.207,1.195-9.838-0.951-10.893-6.438c-0.666-3.465-0.266-7.414,1.203-11.85
				c1.465-4.436,3.826-9.004,7.072-13.709c3.25-4.703,7.285-9.408,12.105-14.115c4.822-4.705,10.283-9.088,16.389-13.143
				c6.107-4.055,12.752-7.635,19.939-10.738c7.186-3.102,14.748-5.42,22.689-6.945c9.234-1.775,17.547-1.951,24.932-0.529
				c7.383,1.428,13.789,4.105,19.227,8.035c5.432,3.936,9.873,8.934,13.324,15.008c3.453,6.07,5.898,12.863,7.344,20.365
				c1.443,7.508,1.67,15.619,0.693,24.34c-0.98,8.723-3.182,17.525-6.598,26.416c-3.416,8.893-8.064,17.605-13.945,26.145
				c-5.879,8.539-13.004,16.42-21.383,23.646c-8.377,7.223-17.982,13.525-28.811,18.898c-10.83,5.375-22.883,9.338-36.162,11.893
				c-2.889,0.555-5.338,0.072-7.352-1.449c-2.014-1.52-3.277-3.615-3.791-6.287c-0.404-2.094-0.43-4.184-0.084-6.27
				c0.346-2.088,0.939-4.072,1.773-5.955l27.488-97.004c1.467-3.65,3.043-6.646,4.727-8.992c1.68-2.344,3.301-4.227,4.861-5.65
				c1.561-1.422,2.994-2.428,4.305-3.016c1.307-0.59,2.324-0.951,3.043-1.09c3.248-0.625,5.74-0.131,7.471,1.482
				c1.732,1.613,2.85,3.717,3.35,6.314c0.402,2.094,0.463,4.367,0.188,6.814C1355.728,250.75,1355.177,253.139,1354.353,255.467z"/>
		</g>
	</g>
	<g style="enable-background:new    ;">
		<g>
			<polygon style="fill:#F3F4F4;" points="862.382,368.918 806.05,336.18 841.466,315.732 897.8,348.471 			"/>
		</g>
		<g>
			<polygon style="fill:#C9C9C9;" points="897.8,348.471 841.466,315.732 841.05,168.541 897.38,201.279 			"/>
		</g>
		<g>
			<polygon style="fill:#F3F4F4;" points="819.173,201.471 762.841,168.729 851.673,117.445 908.001,150.182 			"/>
		</g>
		<g>
			<polygon style="fill:#C9C9C9;" points="819.235,438.859 762.901,406.123 762.229,168.84 818.56,201.58 			"/>
		</g>
		<g>
			<path style="fill:#F44461;" d="M907.769,150.078l33.002,18.57l0.479,166.895l-28.896,49.555l-93.117,53.762L818.56,201.58
				L907.769,150.078z M897.8,348.471l-0.42-147.191l-35.418,20.455l0.42,147.184L897.8,348.471"/>
		</g>
	</g>
	<g>
		<g>
			<linearGradient id="SVGID_1_" gradientUnits="userSpaceOnUse" x1="281.2656" y1="739.3086" x2="449.5024" y2="541.0892">
				<stop  offset="0" style="stop-color:#FF4368"/>
				<stop  offset="1" style="stop-color:#FCB24E"/>
			</linearGradient>
			<path style="fill:url(#SVGID_1_);" d="M315.528,818.58c-4.152,0-8.16-1.748-10.998-4.797c-2.822-3.047-4.266-7.174-3.969-11.322
				l0.203-2.996c0.477-7.879,7.055-14.076,14.982-14.076h19.713c12.596,0,24.182-2.043,34.426-6.076
				c9.941-3.902,18.566-9.684,25.631-17.186c7.188-7.623,12.895-17.227,16.971-28.535c4.178-11.648,6.295-25.342,6.295-40.691
				c0-15.357-2.117-29.045-6.295-40.697c-4.078-11.305-9.783-20.908-16.971-28.535c-7.064-7.496-15.689-13.281-25.631-17.188
				c-10.252-4.031-21.838-6.074-34.426-6.074h-60.242v203.158c0,8.279-6.723,15.016-14.994,15.016h-3.785
				c-8.281,0-15.014-6.736-15.014-15.016V582.23c0-8.277,6.732-15.012,15.014-15.012h79.021c17.002,0,32.848,2.852,47.092,8.479
				c14.549,5.748,27.234,14.258,37.707,25.293c10.385,10.932,18.539,24.377,24.234,39.957c5.596,15.309,8.436,32.787,8.436,51.953
				c0,19.164-2.84,36.643-8.428,51.949c-5.711,15.59-13.857,29.035-24.242,39.967c-10.484,11.037-23.166,19.539-37.707,25.281
				c-14.234,5.629-30.076,8.482-47.092,8.482H315.528L315.528,818.58z"/>
		</g>
		<g>
			<linearGradient id="SVGID_2_" gradientUnits="userSpaceOnUse" x1="314.0732" y1="718.1562" x2="390.3506" y2="628.2849">
				<stop  offset="0" style="stop-color:#3B4481"/>
				<stop  offset="1" style="stop-color:#278ACA"/>
			</linearGradient>
			<path style="fill:url(#SVGID_2_);" d="M326.308,755.346h11.93c7.621,0,14.635-1.291,20.838-3.83
				c6.016-2.459,11.234-6.102,15.514-10.828c4.348-4.805,7.807-10.854,10.266-17.982c2.533-7.34,3.814-15.969,3.814-25.641
				c0-9.678-1.281-18.303-3.814-25.645c-2.465-7.125-5.918-13.174-10.266-17.979c-4.279-4.727-9.498-8.369-15.514-10.83
				c-6.207-2.543-13.219-3.828-20.838-3.828h-36.463V755.33"/>
		</g>
	</g>
	<g>
		<polygon style="fill:#FFC632;" points="881.089,1177.277 854.751,1189.393 818.403,1189.393 818.403,966.57 863.179,966.57 
			883.724,976.58 891.099,995.541 891.099,1157.789 		"/>
		<g>
			<path style="fill:#9A2132;" d="M906.421,1135.275c0,16.389-4.621,30.357-13.859,41.904
				c-9.129,11.441-20.238,17.158-33.326,17.158h-56.754v-11.877h9.404V969.635h-9.404v-11.879h56.754
				c12.977,0,24.088,5.885,33.326,17.654c9.238,11.547,13.859,25.406,13.859,41.574V1135.275z M882.829,999.33
				c0-4.066-0.607-7.92-1.816-11.547c-1.211-3.631-2.887-6.789-5.031-9.486c-2.145-2.695-4.648-4.811-7.508-6.352
				c-2.861-1.539-5.939-2.311-9.238-2.311h-23.758v212.826h23.758c3.299,0,6.377-0.77,9.238-2.311
				c2.859-1.537,5.363-3.631,7.508-6.27c2.145-2.641,3.82-5.746,5.031-9.32c1.209-3.572,1.816-7.396,1.816-11.467V999.33z"/>
		</g>
		<path style="fill:#9A2132;" d="M788.774,1072.299c0,6.438-5.217,11.656-11.654,11.656c-6.439,0-11.654-5.219-11.654-11.656
			c0-6.436,5.215-11.654,11.654-11.654C783.558,1060.645,788.774,1065.863,788.774,1072.299z"/>
		<circle style="fill:#9A2132;" cx="937.915" cy="1072.299" r="11.654"/>
	</g>
	<g>
		<g>
			<path style="fill:#414486;" d="M865.567,586.072c10.352,0,19.578,0.848,27.678,2.543c8.092,1.693,14.965,3.912,20.615,6.637
				c5.648,2.73,10.492,6.494,14.543,11.295c4.049,4.803,7.295,9.842,9.744,15.109c2.445,5.273,4.328,11.719,5.646,19.346
				c1.316,7.625,2.213,15.064,2.686,22.312c0.467,7.25,0.705,15.861,0.705,25.84c0,14.309-0.473,26.219-1.414,35.723
				c-0.941,9.51-3.012,18.877-6.211,28.1c-3.205,9.225-7.723,16.475-13.555,21.748c-5.84,5.27-13.746,9.506-23.727,12.707
				c-9.977,3.203-22.215,4.801-36.711,4.801h-81.615v-19.205h16.943V605.279h-16.943v-19.207h46.031H865.567z M829.983,608.949
				v160.406h33.043c9.604,0,17.793-1.271,24.57-3.812c6.777-2.539,12.143-5.879,16.096-10.023c3.955-4.139,6.963-9.834,9.037-17.086
				c2.072-7.246,3.434-14.496,4.098-21.746c0.654-7.246,0.988-16.424,0.988-27.533c0-11.107-0.334-20.285-0.988-27.537
				c-0.664-7.244-2.025-14.496-4.098-21.744c-2.074-7.246-5.082-12.943-9.037-17.088c-3.953-4.139-9.318-7.484-16.096-10.025
				s-14.967-3.811-24.57-3.811H829.983z"/>
		</g>
		<polygon style="fill:#00B7AD;" points="783.952,629.227 723.659,689.52 783.952,749.812 		"/>
	</g>
	<g>
		<g>
			<defs>
				<circle id="SVGID_3_" cx="352.736" cy="1080.342" r="134.212"/>
			</defs>
			<use xlink:href="#SVGID_3_"  style="overflow:visible;fill:#AFD24A;"/>
			<clipPath id="SVGID_4_">
				<use xlink:href="#SVGID_3_"  style="overflow:visible;"/>
			</clipPath>
			<polygon style="opacity:0.09;clip-path:url(#SVGID_4_);fill:#231F20;" points="289.747,1166.801 348.569,1243.451 
				467.358,1188.572 501.888,1106.805 407.095,977.045 361.722,1120.264 328.378,1153.605 			"/>
		</g>
		<g>
			<path style="fill:#DFE0E1;" d="M420.833,1100.369l-0.219-0.09c-1.027-0.342,3.018-7.5,2.168-7.5
				c-2.854,0-7.293,0.994-9.516,5.326l-2.807,5.957c-14.49,31.756-28.006,52.906-46.859,52.906c-5.047,0-7.604-3.531-7.604-10.5
				c0-8.365,7.133-30.24,9.479-37.438c1.859-5.775,20.256-58.475,31.246-89.961c4.496-12.875,7.893-22.607,8.711-24.979
				c0.82-2.256,0.404-5.059-1.057-7.146c-1.449-2.064-0.975-11.057-3.26-9.775c-4.822,2.701-8.389,6.475-10.127,11.461
				l-15.342,44.293l-4.293,11.754c-5.525-8.232-14.34-12.559-25.715-12.559c-22.143,0-38.713,24.758-46.623,39.516
				c-11.578,21.609-19.062,48.256-19.062,67.883c0,20.326,9.74,32.951,25.422,32.951c12.51,0,23.83-7.133,35.365-22.367
				c1.498,14.104,9.809,22.367,22.859,22.367c27.072,0,43.48-23.646,61.184-61.799l0.07-0.172c0.309-0.934,0.666-1.994,0.666-3.135
				C425.521,1104.449,423.767,1101.836,420.833,1100.369z M362.513,1067.098c0,0.498,0,0.859-0.182,1.434
				c-1,2.295-2,4.855-3.057,7.568c-1.113,2.855-2.264,5.814-3.6,8.93c-11.234,28.648-28.211,71.939-50.59,71.939
				c-4.484,0-9.631-2.215-9.631-19.447c0.574-28.318,24.695-89.027,50.215-89.902
				C355.983,1047.633,361.964,1054.574,362.513,1067.098z"/>
			<path style="fill:#FFFFFF;" d="M426.946,1093.143l-0.219-0.09c-1.027-0.34-1.996-0.666-2.846-0.666
				c-2.855,0-5.764,1.734-7.24,4.318l-0.068,0.133c-14.49,31.756-28.004,52.904-46.859,52.904c-5.045,0-7.602-3.531-7.602-10.5
				c0-8.363,7.131-30.238,9.479-37.436c1.857-5.775,20.252-58.475,31.244-89.961c4.494-12.875,7.891-22.607,8.711-24.98
				c0.816-2.252,0.404-5.059-1.057-7.145c-1.447-2.064-3.686-3.201-6.305-3.201c-3.139,0-5.979,1.947-7.08,4.887l-15.342,44.293
				l-4.295,11.754c-5.523-8.232-14.342-12.559-25.715-12.559c-22.139,0-38.713,24.758-46.621,39.516
				c-11.582,21.609-19.062,48.254-19.062,67.885c0,20.322,9.738,32.951,25.418,32.951c12.514,0,23.832-7.137,35.369-22.371
				c1.498,14.105,9.803,22.371,22.857,22.371c27.072,0,43.48-23.648,61.184-61.799l0.07-0.174c0.311-0.934,0.664-1.992,0.664-3.133
				C431.632,1097.227,429.88,1094.609,426.946,1093.143z M368.626,1059.875c0,0.496,0,0.859-0.184,1.434
				c-1,2.291-1.998,4.854-3.055,7.562c-1.113,2.861-2.268,5.82-3.6,8.934c-11.232,28.646-28.211,71.938-50.588,71.938
				c-4.486,0-9.631-2.213-9.631-19.443c0.568-28.322,24.693-89.029,50.213-89.904
				C362.097,1040.408,368.079,1047.352,368.626,1059.875z"/>
		</g>
	</g>
	<g>
		<polygon style="fill:#9ADBF9;" points="1395.815,848.781 1261.577,768.775 1396.048,477.648 		"/>
		<g>
			<path style="fill:#1486C8;" d="M1334.876,768.133c-17.057,0-32.279-7.232-45.672-21.697
				c-13.396-14.467-20.092-32.416-20.092-53.848c0-21.43,6.516-38.977,19.555-52.637c13.035-13.664,28.303-20.494,45.809-20.494
				c17.5,0,31.785,6.162,42.859,18.484v-70.723h40.186V765.99h-40.186v-19.02C1366.087,761.08,1351.931,768.133,1334.876,768.133z
				 M1309.562,694.197c0,11.611,3.482,21.119,10.447,28.529c6.965,7.412,15.09,11.117,24.377,11.117
				c9.285,0,17.188-3.705,23.709-11.117c6.516-7.41,9.777-16.965,9.777-28.664c0-11.695-3.262-21.43-9.777-29.199
				c-6.521-7.768-14.512-11.654-23.975-11.654c-9.469,0-17.594,3.932-24.379,11.789
				C1312.952,672.857,1309.562,682.59,1309.562,694.197z"/>
		</g>
	</g>
	<g>
		<path style="fill:#4D51A2;" d="M1458.175,1162.141c0,11.814-9.393,21.393-20.977,21.393h-178.938
			c-11.584,0-20.975-9.578-20.975-21.393V979.625c0-11.814,9.391-21.393,20.975-21.393h178.938c11.584,0,20.977,9.578,20.977,21.393
			V1162.141z"/>
		<g>
			<path style="fill:#DADBDC;" d="M1381.519,1157.904c-3.764,0-6.232-1.764-7.408-5.291l-2.352-11.641
				c-2.51,2.82-5.137,5.369-7.879,7.643c-2.746,2.275-5.703,4.232-8.879,5.879c-3.174,1.646-6.584,2.922-10.23,3.822
				s-7.584,1.354-11.818,1.354c-6.586,0-12.623-1.373-18.109-4.117c-5.488-2.742-10.211-6.721-14.17-11.936
				c-3.959-5.213-7.016-11.66-9.172-19.344c-2.156-7.682-3.234-16.463-3.234-26.342c0-8.938,1.215-17.244,3.646-24.93
				c2.428-7.682,5.918-14.346,10.465-19.99s9.996-10.055,16.346-13.229c6.352-3.176,13.482-4.764,21.402-4.764
				c6.74,0,12.504,1.08,17.285,3.234c4.781,2.156,9.057,5.039,12.818,8.643v-63.734l4.256-2.395l24.789,2.395l4.256,172.348
				l-4.256,2.395H1381.519z M1342.829,1136.621c6.037,0,11.172-1.254,15.406-3.764c4.232-2.508,8.232-6.074,11.994-10.701v-54.092
				c-3.293-3.998-6.879-6.82-10.76-8.467s-8.055-2.471-12.523-2.471c-4.391,0-8.369,0.824-11.936,2.471
				c-3.568,1.646-6.586,4.135-9.055,7.467c-2.469,3.334-4.371,7.566-5.703,12.699c-1.334,5.137-2,11.191-2,18.168
				c0,7.057,0.568,13.035,1.705,17.934c1.137,4.9,2.764,8.898,4.881,11.994c2.115,3.098,4.703,5.332,7.762,6.703
				C1335.657,1135.936,1339.067,1136.621,1342.829,1136.621z"/>
		</g>
		<g>
			<path style="fill:#FFFFFF;" d="M1385.774,1155.51c-3.764,0-6.232-1.764-7.408-5.291l-2.352-11.641
				c-2.51,2.822-5.135,5.369-7.879,7.643c-2.746,2.275-5.703,4.234-8.879,5.879c-3.174,1.646-6.584,2.922-10.23,3.822
				c-3.645,0.9-7.584,1.354-11.818,1.354c-6.586,0-12.623-1.373-18.109-4.117c-5.488-2.742-10.211-6.721-14.17-11.936
				c-3.959-5.213-7.016-11.66-9.172-19.344c-2.156-7.682-3.234-16.463-3.234-26.34c0-8.938,1.215-17.246,3.646-24.93
				c2.428-7.684,5.918-14.348,10.467-19.992c4.545-5.645,9.994-10.053,16.344-13.229c6.352-3.176,13.482-4.762,21.402-4.762
				c6.74,0,12.504,1.078,17.285,3.232c4.781,2.158,9.057,5.039,12.818,8.643v-63.734h29.045v174.742H1385.774z M1347.087,1134.227
				c6.035,0,11.17-1.254,15.404-3.764c4.234-2.508,8.232-6.074,11.994-10.701v-54.092c-3.293-3.998-6.879-6.82-10.76-8.467
				s-8.055-2.469-12.523-2.469c-4.391,0-8.369,0.822-11.936,2.469c-3.568,1.646-6.586,4.137-9.055,7.467
				c-2.469,3.334-4.371,7.566-5.703,12.699c-1.334,5.137-1.998,11.193-1.998,18.17c0,7.055,0.566,13.033,1.705,17.932
				c1.135,4.9,2.762,8.898,4.879,11.994c2.117,3.098,4.703,5.334,7.762,6.703
				C1339.913,1133.541,1343.323,1134.227,1347.087,1134.227z"/>
		</g>
	</g>
</g>
<g id="Vexels">
	<g>
		<path style="fill:#FFFFFF;" d="M2554.222,430.839h-644.659c-10.941,0-19.811,8.87-19.811,19.811v268.082l-62.03,19.922
			l62.03,18.008v186.82c0,10.939,8.869,19.809,19.811,19.809h644.659c10.94,0,19.811-8.869,19.811-19.809V450.649
			C2574.032,439.709,2565.162,430.839,2554.222,430.839z"/>
		<rect x="1954.322" y="497.827" style="fill:none;" width="583.033" height="407.033"/>
		<text transform="matrix(1 0 0 1 1954.3223 514.8672)"><tspan x="0" y="0" style="fill:#333333; font-family:'MyriadPro-Regular'; font-size:24;">This design was made by vexels.com. It&#x2019;s under Creative </tspan><tspan x="0" y="28.799" style="fill:#333333; font-family:'MyriadPro-Regular'; font-size:24;">Commons 3.0 Attribution License, so you can use this </tspan><tspan x="0" y="57.6" style="fill:#333333; font-family:'MyriadPro-Regular'; font-size:24;">vector (even commercially) as long as you credit us. If you </tspan><tspan x="0" y="86.399" style="fill:#333333; font-family:'MyriadPro-Regular'; font-size:24;">don&#x2019;t want to credit, you can buy a license. Learn more on </tspan><tspan x="0" y="115.199" style="fill:#C54B09; font-family:'MyriadPro-Regular'; font-size:24;">www.vexels.com/terms-and-conditions/</tspan><tspan x="0" y="201.6" style="fill:#333333; font-family:'MyriadPro-Regular'; font-size:24;">You can&#x2019;t sublicense, redistribute or resell an image or </tspan><tspan x="0" y="230.399" style="fill:#333333; font-family:'MyriadPro-Regular'; font-size:24;">part of it. You can&#x2019;t use our contents for products where </tspan><tspan x="0" y="259.199" style="fill:#333333; font-family:'MyriadPro-Regular'; font-size:24;">the design is the main reason it&#x2019;s being purchased either.</tspan><tspan x="0" y="316.799" style="fill:#333333; font-family:'MyriadPro-Regular'; font-size:24;">Thanks!</tspan><tspan x="0" y="345.6" style="fill:#333333; font-family:'MyriadPro-Regular'; font-size:24;">Vexels Team</tspan></text>
	</g>
	<g>
		<g>
			<path style="fill:#231F20;" d="M854.976,1262.535l-0.942-2.038c-0.463-0.981-1.697-1.438-2.731-1.016
				c-1.121,0.383-1.624,1.542-1.161,2.486l1.061,2.299l8.377,18.177c0.081,0.07,0.153,0.21,0.191,0.28
				c0,0.034,0.044,0.034,0.044,0.034c0.039,0.071,0.115,0.141,0.191,0.214c0,0.068,0.037,0.068,0.037,0.103
				c0.113,0.07,0.192,0.107,0.269,0.177c0.039,0,0.039,0,0.039,0c0.114,0.069,0.27,0.174,0.347,0.208c0.037,0,0.037,0,0.037,0
				s0.043,0,0.043,0.039c0.073,0,0.229,0.033,0.307,0.064c0.034,0,0.077,0,0.077,0c0.114,0.036,0.268,0.036,0.388,0.036
				c0.112,0,0.23,0,0.385-0.036c0.033,0,0.072,0,0.072,0c0.115-0.031,0.192-0.064,0.311-0.064c0.042-0.039,0.042-0.039,0.074-0.039
				c0.119-0.034,0.236-0.139,0.311-0.176c0.077-0.032,0.077-0.032,0.077-0.032c0.077-0.069,0.152-0.106,0.229-0.177
				c0.042-0.034,0.042-0.034,0.079-0.103c0.04-0.073,0.15-0.143,0.189-0.214c0.039,0,0.039,0,0.039-0.034
				c0.08-0.07,0.122-0.21,0.156-0.28l0.36-0.773l-2.282-4.943L854.976,1262.535z M936.687,1262.393
				c0.653-0.878,0.504-2.069-0.459-2.667c-0.963-0.667-2.236-0.492-2.964,0.421l-4.393,5.477l2.615,3.197L936.687,1262.393z
				 M871.827,1259.481c-1.036-0.423-2.309,0.034-2.77,1.016l-5.581,12.056l2.288,4.951l7.221-15.536
				C873.409,1261.023,872.907,1259.864,871.827,1259.481z M822.109,1252.069c-0.907-0.905-2.112-1.403-3.392-1.403
				c-1.278,0-2.481,0.498-3.389,1.403l-15.52,15.521c-1.867,1.874-1.867,4.908,0,6.776l15.52,15.521
				c0.907,0.906,2.11,1.401,3.389,1.401c1.279,0,2.484-0.495,3.392-1.396l15.515-15.527c0.908-0.908,1.408-2.106,1.408-3.391
				c0-1.275-0.5-2.479-1.408-3.386L822.109,1252.069z M835.22,1272.372l-15.109,15.104c-0.746,0.746-2.041,0.746-2.78,0
				l-15.109-15.104c-0.769-0.767-0.769-2.016-0.003-2.785l15.112-15.107c0.011-0.013,0.024-0.026,0.04-0.034v12.52
				c-0.614,0.209-1.184,0.537-1.654,1.012c-0.803,0.802-1.243,1.865-1.243,3c0,1.136,0.44,2.207,1.243,3.003
				c0.799,0.809,1.867,1.247,3,1.247c1.135,0,2.203-0.437,3.007-1.247c1.653-1.652,1.653-4.348,0-6.01
				c-0.472-0.469-1.04-0.796-1.656-1.005v-12.52c0.013,0.008,0.03,0.021,0.044,0.034l15.109,15.107
				c0.369,0.369,0.569,0.868,0.569,1.39C835.789,1271.503,835.589,1271.994,835.22,1272.372z M929.373,1271.434l-2.587-3.227
				l-6.504-8.061c-0.66-0.913-2.007-1.088-2.932-0.421c-0.961,0.598-1.154,1.789-0.502,2.667l7.321,9.041l-7.321,9.118
				c-0.652,0.836-0.459,2.068,0.502,2.662c0.349,0.245,0.773,0.385,1.231,0.385c0.655,0,1.272-0.315,1.7-0.805l6.504-8.101
				l6.951,8.696c0.4,0.501,1.037,0.76,1.627,0.76c0.439,0,0.952-0.204,1.322-0.499c0.873-0.694,0.941-1.95,0.244-2.821
				L929.373,1271.434z M895.309,1259.103c-6.229,0-11.301,5.508-11.301,12.276c0,6.713,5.071,12.181,11.301,12.181
				c3.825,0,7.351-2.087,9.428-5.587c0.503-0.904,0.251-2.026-0.634-2.7c-0.283-0.182-0.619-0.28-0.962-0.28
				c-0.665,0-1.26,0.357-1.578,0.939c-1.307,2.301-3.703,3.729-6.254,3.729c-3.78,0-6.911-3.009-7.472-7.077h16.809
				c1.049,0,1.871-0.815,1.871-1.858l-0.002-0.248C906.039,1263.991,901.218,1259.103,895.309,1259.103z M888.108,1268.729
				c1.021-3.447,3.848-5.729,7.2-5.729c3.286,0,6.125,2.33,7.08,5.729H888.108z M991.61,1279.598c-0.041,0-2.896,0-2.939,0
				c-1.086,0-2.354-0.628-2.354-2.387v-19.521c0-1.146-0.936-2.08-2.088-2.08c-1.106,0-2.084,0.974-2.084,2.08v19.521
				c0,3.86,2.564,6.352,6.525,6.352c0.053,0,2.915,0,2.967-0.003c1.027-0.073,1.839-0.935,1.839-1.979
				C993.477,1280.529,992.651,1279.66,991.61,1279.598z M1023.485,1273.152c-0.887-1.297-2.275-2.21-3.852-2.907
				c-1.541-0.668-3.351-1.123-5.316-1.471h-0.077c-2.077-0.353-3.812-0.916-4.811-1.547c-0.503-0.312-0.853-0.626-1.046-0.913
				c-0.189-0.277-0.27-0.561-0.27-0.978c0-0.735,0.423-1.508,1.469-2.208c1.037-0.701,2.58-1.193,4.309-1.193
				c2.353,0,4.238,1.053,6.205,2.243c0.926,0.558,2.156,0.315,2.734-0.525c0.615-0.807,0.348-1.93-0.537-2.489
				c-1.967-1.157-4.707-2.807-8.402-2.807c-2.502,0-4.85,0.666-6.659,1.858c-1.771,1.198-3.085,3.015-3.085,5.121
				c0,1.051,0.309,2.033,0.891,2.87c0.844,1.229,2.117,2.11,3.574,2.735c1.467,0.631,3.168,1.053,4.973,1.371h0.08
				c2.266,0.382,4.159,0.978,5.277,1.644c0.574,0.353,0.92,0.702,1.154,1.056c0.23,0.35,0.345,0.661,0.345,1.119
				c0,0.877-0.499,1.752-1.659,2.526c-1.152,0.769-2.884,1.297-4.81,1.297c-2.737,0.033-5.665-1.439-7.358-2.701
				c-0.85-0.635-2.117-0.527-2.812,0.241c-0.657,0.772-0.541,1.932,0.306,2.562c2.2,1.581,5.7,3.474,9.864,3.505
				c2.731,0,5.236-0.733,7.124-1.994c1.929-1.266,3.312-3.189,3.312-5.437C1024.408,1275.04,1024.065,1273.995,1023.485,1273.152z
				 M959.63,1259.103c-6.229,0-11.297,5.508-11.297,12.276c0,6.713,5.068,12.181,11.297,12.181c3.83,0,7.35-2.087,9.434-5.587
				c0.5-0.904,0.25-2.026-0.633-2.7c-0.287-0.182-0.62-0.28-0.965-0.28c-0.665,0-1.256,0.357-1.58,0.939
				c-1.302,2.301-3.698,3.729-6.256,3.729c-3.779,0-6.91-3.009-7.473-7.077h16.812c1.048,0,1.872-0.815,1.872-1.858v-0.248
				C970.363,1263.991,965.545,1259.103,959.63,1259.103z M952.432,1268.729c1.021-3.447,3.85-5.729,7.198-5.729
				c3.292,0,6.127,2.33,7.084,5.729H952.432z"/>
		</g>
		<g>
			<path style="fill:#231F20;" d="M684.421,1272.604c0,0.732,0.006,1.393,0.017,1.986c0.016,0.589,0.081,1.174,0.194,1.746h-1.154
				l-0.428-1.522h-0.088c-0.283,0.501-0.699,0.916-1.241,1.244c-0.544,0.327-1.177,0.492-1.909,0.492
				c-1.426,0-2.488-0.449-3.184-1.351c-0.689-0.898-1.036-2.305-1.036-4.223c0-1.824,0.433-3.216,1.299-4.162
				c0.862-0.952,2.051-1.424,3.564-1.424c0.529,0,0.946,0.026,1.255,0.081c0.307,0.059,0.638,0.151,0.996,0.278v-4.455h1.715
				V1272.604z M680.092,1275.053c0.729,0,1.307-0.193,1.737-0.572c0.426-0.377,0.717-0.953,0.877-1.724v-5.312
				c-0.26-0.2-0.549-0.345-0.877-0.43c-0.332-0.088-0.766-0.129-1.306-0.129c-0.989,0-1.759,0.326-2.317,0.977
				c-0.555,0.649-0.836,1.688-0.836,3.113c0,0.588,0.047,1.13,0.143,1.627c0.088,0.504,0.242,0.933,0.459,1.289
				c0.216,0.359,0.495,0.641,0.848,0.847C679.169,1274.947,679.593,1275.053,680.092,1275.053z"/>
			<path style="fill:#231F20;" d="M695.54,1275.436c-0.435,0.343-0.968,0.613-1.617,0.815c-0.651,0.2-1.339,0.299-2.07,0.299
				c-0.812,0-1.52-0.132-2.121-0.396c-0.596-0.263-1.092-0.642-1.477-1.136s-0.673-1.083-0.854-1.768
				c-0.189-0.686-0.282-1.455-0.282-2.312c0-1.83,0.409-3.224,1.225-4.183c0.811-0.952,1.975-1.434,3.49-1.434
				c0.484,0,0.969,0.054,1.457,0.162c0.486,0.107,0.918,0.312,1.303,0.611c0.389,0.3,0.704,0.726,0.947,1.274
				c0.244,0.551,0.363,1.275,0.363,2.175c0,0.469-0.044,0.993-0.131,1.561h-6.873c0,0.629,0.06,1.187,0.19,1.673
				c0.126,0.488,0.327,0.897,0.6,1.232c0.274,0.335,0.624,0.596,1.062,0.771c0.437,0.18,0.967,0.271,1.594,0.271
				c0.485,0,0.971-0.09,1.459-0.26c0.484-0.17,0.851-0.373,1.092-0.6L695.54,1275.436z M691.853,1266.825
				c-0.84,0-1.517,0.218-2.024,0.664c-0.507,0.442-0.812,1.199-0.91,2.271h5.314c0-1.089-0.21-1.849-0.623-2.284
				C693.196,1267.039,692.61,1266.825,691.853,1266.825z"/>
			<path style="fill:#231F20;" d="M703.313,1273.38c0-0.431-0.128-0.768-0.381-1.008c-0.261-0.242-0.578-0.444-0.958-0.609
				c-0.376-0.167-0.792-0.323-1.238-0.474c-0.453-0.146-0.868-0.342-1.246-0.576c-0.378-0.236-0.693-0.541-0.952-0.909
				c-0.256-0.375-0.385-0.875-0.385-1.502c0-1.028,0.291-1.78,0.874-2.258c0.587-0.482,1.403-0.722,2.446-0.722
				c0.771,0,1.417,0.068,1.939,0.208c0.521,0.132,0.975,0.294,1.36,0.482l-0.409,1.41c-0.328-0.157-0.727-0.296-1.187-0.415
				c-0.466-0.122-0.962-0.183-1.491-0.183c-0.629,0-1.088,0.103-1.381,0.319c-0.295,0.217-0.439,0.586-0.439,1.113
				c0,0.37,0.129,0.661,0.387,0.868c0.257,0.209,0.573,0.394,0.952,0.559c0.376,0.164,0.794,0.323,1.244,0.481
				c0.448,0.156,0.863,0.365,1.241,0.621c0.378,0.258,0.697,0.583,0.952,0.976c0.259,0.392,0.386,0.907,0.386,1.548
				c0,0.462-0.074,0.89-0.225,1.289c-0.15,0.401-0.38,0.745-0.695,1.029c-0.316,0.287-0.702,0.511-1.165,0.673
				c-0.47,0.164-1.015,0.248-1.642,0.248c-0.814,0-1.508-0.081-2.078-0.235c-0.57-0.158-1.05-0.342-1.434-0.559l0.512-1.455
				c0.33,0.187,0.758,0.357,1.287,0.513c0.527,0.16,1.062,0.239,1.605,0.239c0.613,0,1.12-0.123,1.521-0.368
				C703.114,1274.441,703.313,1274.008,703.313,1273.38z"/>
			<path style="fill:#231F20;" d="M707.622,1262.324c0-0.326,0.109-0.609,0.331-0.847s0.504-0.354,0.846-0.354
				c0.344,0,0.636,0.116,0.88,0.354c0.243,0.237,0.363,0.521,0.363,0.847c0,0.328-0.12,0.601-0.363,0.812
				c-0.244,0.217-0.536,0.323-0.88,0.323c-0.342,0-0.624-0.106-0.846-0.323C707.731,1262.925,707.622,1262.652,707.622,1262.324z
				 M707.985,1265.58h1.715v10.711h-1.715V1265.58z"/>
			<path style="fill:#231F20;" d="M721.568,1276.783c0,1.388-0.37,2.409-1.105,3.068c-0.736,0.654-1.821,0.982-3.266,0.982
				c-0.855,0-1.548-0.053-2.067-0.16c-0.521-0.107-0.968-0.246-1.343-0.418l0.454-1.457c0.328,0.131,0.69,0.25,1.092,0.365
				c0.4,0.115,0.922,0.17,1.564,0.17c0.6,0,1.09-0.053,1.467-0.16c0.376-0.105,0.685-0.284,0.911-0.536
				c0.228-0.249,0.385-0.571,0.472-0.965c0.084-0.394,0.128-0.861,0.128-1.402v-1.027h-0.085c-0.287,0.413-0.651,0.731-1.093,0.953
				c-0.443,0.222-1.021,0.331-1.736,0.331c-1.442,0-2.504-0.448-3.181-1.349c-0.682-0.9-1.019-2.301-1.019-4.202
				c0-1.824,0.434-3.216,1.308-4.162c0.871-0.952,2.156-1.424,3.854-1.424c0.816,0,1.514,0.063,2.092,0.189
				c0.58,0.129,1.094,0.28,1.554,0.449V1276.783z M717.261,1275.029c0.729,0,1.3-0.186,1.715-0.549
				c0.414-0.363,0.709-0.932,0.879-1.702v-5.484c-0.574-0.27-1.303-0.407-2.186-0.407c-0.97,0-1.736,0.332-2.292,0.983
				c-0.557,0.659-0.838,1.688-0.838,3.089c0,0.599,0.052,1.147,0.153,1.645c0.099,0.504,0.255,0.933,0.471,1.289
				c0.214,0.359,0.491,0.637,0.836,0.836C716.342,1274.93,716.761,1275.029,717.261,1275.029z"/>
			<path style="fill:#231F20;" d="M731.743,1276.291v-6.102c0-1.117-0.161-1.956-0.483-2.518c-0.321-0.564-0.909-0.847-1.766-0.847
				c-0.759,0-1.384,0.202-1.876,0.611c-0.49,0.404-0.839,0.916-1.038,1.53v7.324h-1.712v-10.711h1.197l0.322,1.307h0.085
				c0.345-0.456,0.808-0.834,1.382-1.126c0.578-0.289,1.27-0.438,2.068-0.438c0.588,0,1.1,0.068,1.541,0.208
				c0.444,0.132,0.812,0.371,1.104,0.715c0.292,0.34,0.517,0.803,0.665,1.382c0.152,0.578,0.224,1.312,0.224,2.196v6.468H731.743z"
				/>
			<path style="fill:#231F20;" d="M744.403,1275.436c-0.428,0.343-0.966,0.613-1.617,0.815c-0.646,0.2-1.338,0.299-2.067,0.299
				c-0.812,0-1.521-0.132-2.119-0.396c-0.6-0.263-1.093-0.642-1.479-1.136s-0.672-1.083-0.854-1.768
				c-0.188-0.686-0.279-1.455-0.279-2.312c0-1.83,0.406-3.224,1.219-4.183c0.814-0.952,1.98-1.434,3.494-1.434
				c0.486,0,0.971,0.054,1.455,0.162c0.484,0.107,0.92,0.312,1.309,0.611c0.383,0.3,0.696,0.726,0.939,1.274
				c0.244,0.551,0.364,1.275,0.364,2.175c0,0.469-0.044,0.993-0.126,1.561h-6.879c0,0.629,0.066,1.187,0.194,1.673
				c0.128,0.488,0.328,0.897,0.601,1.232c0.27,0.335,0.62,0.596,1.06,0.771c0.435,0.18,0.965,0.271,1.595,0.271
				c0.488,0,0.971-0.09,1.459-0.26c0.484-0.17,0.846-0.373,1.09-0.6L744.403,1275.436z M740.719,1266.825
				c-0.841,0-1.516,0.218-2.024,0.664c-0.506,0.442-0.811,1.199-0.91,2.271h5.314c0-1.089-0.209-1.849-0.621-2.284
				C742.062,1267.039,741.474,1266.825,740.719,1266.825z"/>
			<path style="fill:#231F20;" d="M755.694,1272.604c0,0.732,0.008,1.393,0.021,1.986c0.018,0.589,0.077,1.174,0.195,1.746h-1.159
				l-0.429-1.522h-0.087c-0.283,0.501-0.698,0.916-1.241,1.244c-0.541,0.327-1.178,0.492-1.906,0.492
				c-1.426,0-2.488-0.449-3.184-1.351c-0.691-0.898-1.039-2.305-1.039-4.223c0-1.824,0.434-3.216,1.298-4.162
				c0.862-0.952,2.052-1.424,3.569-1.424c0.526,0,0.944,0.026,1.248,0.081c0.311,0.059,0.643,0.151,0.998,0.278v-4.455h1.715
				V1272.604z M751.366,1275.053c0.73,0,1.309-0.193,1.736-0.572c0.428-0.377,0.719-0.953,0.877-1.724v-5.312
				c-0.252-0.2-0.549-0.345-0.877-0.43c-0.328-0.088-0.763-0.129-1.309-0.129c-0.985,0-1.752,0.326-2.31,0.977
				c-0.559,0.649-0.837,1.688-0.837,3.113c0,0.588,0.046,1.13,0.141,1.627c0.09,0.504,0.244,0.933,0.459,1.289
				c0.213,0.359,0.495,0.641,0.848,0.847C750.444,1274.947,750.868,1275.053,751.366,1275.053z"/>
			<path style="fill:#231F20;" d="M764.714,1261.295h1.714v5.334h0.087c0.328-0.411,0.748-0.733,1.252-0.962
				c0.505-0.228,1.061-0.345,1.66-0.345c1.387,0,2.424,0.444,3.119,1.331c0.691,0.884,1.036,2.255,1.036,4.112
				c0,1.871-0.456,3.292-1.37,4.264c-0.914,0.971-2.2,1.453-3.856,1.453c-0.798,0-1.522-0.084-2.174-0.255
				c-0.647-0.17-1.139-0.354-1.468-0.556V1261.295z M769.128,1266.825c-0.718,0-1.295,0.199-1.736,0.598
				c-0.443,0.399-0.764,0.965-0.964,1.691v5.396c0.271,0.161,0.602,0.279,0.985,0.357c0.386,0.079,0.787,0.117,1.2,0.117
				c0.97,0,1.748-0.344,2.324-1.028c0.579-0.686,0.866-1.756,0.866-3.211c0-0.557-0.049-1.079-0.148-1.568
				c-0.099-0.484-0.258-0.897-0.474-1.241c-0.212-0.344-0.489-0.614-0.82-0.812C770.022,1266.924,769.612,1266.825,769.128,1266.825
				z"/>
			<path style="fill:#231F20;" d="M779.187,1272.522l0.599,2.055h0.11l0.473-2.076l2.086-6.921h1.715l-3.173,9.619
				c-0.243,0.7-0.481,1.379-0.719,2.037c-0.236,0.654-0.495,1.241-0.779,1.756c-0.286,0.515-0.61,0.925-0.964,1.231
				c-0.357,0.307-0.77,0.461-1.242,0.461c-0.516,0-0.936-0.073-1.267-0.212l0.301-1.48c0.187,0.073,0.363,0.105,0.538,0.105
				c0.396,0,0.781-0.208,1.155-0.63c0.37-0.421,0.677-1.146,0.918-2.177l-4.305-10.711h1.972L779.187,1272.522z"/>
		</g>
	</g>
</g>
<g id="Layer_3">
</g>
</svg>
